<?xml version="1.0" encoding="UTF-8"?>
<svg width="44px" height="44px" viewBox="0 0 44 44" version="1.1" xmlns="http://www.w3.org/2000/svg" xmlns:xlink="http://www.w3.org/1999/xlink">
    <!-- Generator: Sketch 40.3 (33839) - http://www.bohemiancoding.com/sketch -->
    <title>Page 1</title>
    <desc>Created with Sketch.</desc>
    <defs></defs>
    <g id="Page-1" stroke="none" stroke-width="1" fill="none" fill-rule="evenodd">
        <g id="Artboard-Copy-3" transform="translate(-561.000000, -247.000000)" fill="#000000">
            <g id="Page-1" transform="translate(561.000000, 247.000000)">
                <path d="M33,16.5 C33,18.322535 31.522535,19.8 29.7,19.8 C27.877465,19.8 26.4,18.322535 26.4,16.5 C26.4,14.677465 27.877465,13.2 29.7,13.2 C31.522535,13.2 33,14.677465 33,16.5 L33,16.5 Z" id="Fill-1"></path>
                <path d="M17.6,16.5 C17.6,18.322535 16.122535,19.8 14.3,19.8 C12.477465,19.8 11,18.322535 11,16.5 C11,14.677465 12.477465,13.2 14.3,13.2 C16.122535,13.2 17.6,14.677465 17.6,16.5 L17.6,16.5 Z" id="Fill-3"></path>
                <path d="M21.978,0 C9.834,0 0,9.856 0,22 C0,34.144 9.834,44 21.978,44 C34.144,44 44,34.144 44,22 C44,9.856 34.144,0 21.978,0 L21.978,0 Z M22,39.6 C12.276,39.6 4.4,31.724 4.4,22 C4.4,12.276 12.276,4.4 22,4.4 C31.724,4.4 39.6,12.276 39.6,22 C39.6,31.724 31.724,39.6 22,39.6 L22,39.6 Z M22,26.4 C16.874,26.4 12.496,29.59 10.736,34.1 L14.41,34.1 C15.928,31.482 18.744,29.7 22,29.7 C25.256,29.7 28.05,31.482 29.59,34.1 L33.264,34.1 C31.504,29.59 27.126,26.4 22,26.4 L22,26.4 Z" id="Fill-4"></path>
            </g>
        </g>
    </g>
</svg>