<?xml version="1.0" encoding="UTF-8" standalone="no"?>
<svg
   xmlns:dc="http://purl.org/dc/elements/1.1/"
   xmlns:cc="http://creativecommons.org/ns#"
   xmlns:rdf="http://www.w3.org/1999/02/22-rdf-syntax-ns#"
   xmlns:svg="http://www.w3.org/2000/svg"
   xmlns="http://www.w3.org/2000/svg"
   xmlns:sodipodi="http://sodipodi.sourceforge.net/DTD/sodipodi-0.dtd"
   xmlns:inkscape="http://www.inkscape.org/namespaces/inkscape"
   version="1.1"
   x="0px"
   y="0px"
   viewBox="0 0 18 18"
   enable-background="new 0 0 100 100"
   xml:space="preserve"
   id="svg2"
   inkscape:version="0.91 r13725"
   sodipodi:docname="noun_5634_cc.svg"
   width="18"
   height="18"><metadata
     id="metadata34"><rdf:RDF><cc:Work
         rdf:about=""><dc:format>image/svg+xml</dc:format><dc:type
           rdf:resource="http://purl.org/dc/dcmitype/StillImage" /><dc:title></dc:title></cc:Work></rdf:RDF></metadata><defs
     id="defs32" /><sodipodi:namedview
     pagecolor="#ffffff"
     bordercolor="#666666"
     borderopacity="1"
     objecttolerance="10"
     gridtolerance="10"
     guidetolerance="10"
     inkscape:pageopacity="0"
     inkscape:pageshadow="2"
     inkscape:window-width="718"
     inkscape:window-height="480"
     id="namedview30"
     showgrid="false"
     inkscape:zoom="1.888"
     inkscape:cx="31.201939"
     inkscape:cy="29.659636"
     inkscape:window-x="20"
     inkscape:window-y="43"
     inkscape:window-maximized="0"
     inkscape:current-layer="svg2"
     fit-margin-top="0"
     fit-margin-left="0"
     fit-margin-right="0"
     fit-margin-bottom="0" /><g
     display="none"
     id="g4"
     style="display:none"
     transform="translate(-41.357383,-37.5)"><path
       display="inline"
       d="m 50.002,32.008 c 9.916,0 17.989,8.07 17.989,17.992 0,9.92 -8.073,17.99 -17.989,17.99 -9.921,0 -17.995,-8.07 -17.995,-17.99 0,-9.922 8.074,-17.992 17.995,-17.992 m 0,-17.99 C 30.13,14.018 14.018,30.127 14.018,50 c 0,19.873 16.112,35.982 35.984,35.982 19.873,0 35.98,-16.109 35.98,-35.982 0,-19.873 -16.107,-35.982 -35.98,-35.982 l 0,0 z"
       id="path6"
       inkscape:connector-curvature="0"
       style="display:inline" /></g><g
     id="g8"
     transform="matrix(0.24050024,0,0,0.24050024,-2.8527344,-3.2326391)"><polygon
       points="79.401,54.628 20.597,54.628 20.597,27.131 14.064,27.131 14.064,72.869 20.597,72.869 20.597,61.161 79.401,61.161 79.401,72.869 85.936,72.869 85.936,33.663 79.401,33.663 "
       id="polygon10" /><path
       d="m 32.622,51.02 c 4.41,0 7.986,-3.576 7.986,-7.984 0,-4.409 -3.576,-7.985 -7.986,-7.985 -4.407,0 -7.985,3.576 -7.985,7.985 0,4.407 3.577,7.984 7.985,7.984 z"
       id="path12"
       inkscape:connector-curvature="0" /><polygon
       points="74.363,37.952 64.565,37.952 43.804,37.952 43.804,51.02 74.363,51.02 74.363,47.751 "
       id="polygon14" /></g><g
     display="none"
     id="g16"
     style="display:none"
     transform="translate(-41.357383,-37.5)"><path
       display="inline"
       d="m 50.463,22.014 c -19.869,0 -35.984,11.045 -35.984,24.674 0,6.475 3.667,12.342 9.612,16.748 l -4.027,14.551 20.54,-7.582 c 3.132,0.615 6.438,0.967 9.859,0.967 19.873,0 35.98,-11.049 35.98,-24.684 0,-13.629 -16.107,-24.674 -35.98,-24.674 z"
       id="path18"
       inkscape:connector-curvature="0"
       style="display:inline" /></g><g
     display="none"
     id="g20"
     style="display:none"
     transform="translate(-41.357383,-37.5)"><rect
       x="15.206"
       y="32.138"
       transform="matrix(0.7071,0.7071,-0.7071,0.7071,47.1326,-19.5203)"
       display="inline"
       width="63.844002"
       height="29.986"
       id="rect22"
       style="display:inline" /><polygon
       display="inline"
       points="85.957,64.756 64.752,85.957 64.842,86.045 85.982,85.98 86.045,64.842 "
       id="polygon24"
       style="display:inline" /></g></svg>