<?xml version="1.0" encoding="UTF-8" standalone="no"?>
<svg
   xmlns:dc="http://purl.org/dc/elements/1.1/"
   xmlns:cc="http://creativecommons.org/ns#"
   xmlns:rdf="http://www.w3.org/1999/02/22-rdf-syntax-ns#"
   xmlns:svg="http://www.w3.org/2000/svg"
   xmlns="http://www.w3.org/2000/svg"
   xmlns:sodipodi="http://sodipodi.sourceforge.net/DTD/sodipodi-0.dtd"
   xmlns:inkscape="http://www.inkscape.org/namespaces/inkscape"
   version="1.1"
   x="0px"
   y="0px"
   viewBox="0 0 18 18.000001"
   enable-background="new 0 0 100 100"
   xml:space="preserve"
   id="svg2"
   inkscape:version="0.91 r13725"
   sodipodi:docname="noun_22358_cc.svg"
   width="18"
   height="18"><metadata
     id="metadata20"><rdf:RDF><cc:Work
         rdf:about=""><dc:format>image/svg+xml</dc:format><dc:type
           rdf:resource="http://purl.org/dc/dcmitype/StillImage" /><dc:title></dc:title></cc:Work></rdf:RDF></metadata><defs
     id="defs18" /><sodipodi:namedview
     pagecolor="#ffffff"
     bordercolor="#666666"
     borderopacity="1"
     objecttolerance="10"
     gridtolerance="10"
     guidetolerance="10"
     inkscape:pageopacity="0"
     inkscape:pageshadow="2"
     inkscape:window-width="718"
     inkscape:window-height="480"
     id="namedview16"
     showgrid="false"
     fit-margin-top="0"
     fit-margin-left="0"
     fit-margin-right="0"
     fit-margin-bottom="0"
     inkscape:zoom="5.6568542"
     inkscape:cx="9.0000001"
     inkscape:cy="8.3144617"
     inkscape:window-x="40"
     inkscape:window-y="86"
     inkscape:window-maximized="0"
     inkscape:current-layer="svg2" /><g
     id="g4"
     transform="matrix(0.38538946,0,0,0.38538946,-10.092696,-11.124087)"><path
       d="m 67.5,37.662 -24.635,0 0,-3.477 c 0,-0.828 -0.671,-1.5 -1.5,-1.5 l -8.865,0 c -0.829,0 -1.5,0.672 -1.5,1.5 l 0,3.679 c -2.501,0.665 -4.353,2.942 -4.353,5.649 l 0,17.949 c 0,3.227 2.625,5.852 5.853,5.852 l 35,0 c 3.227,0 5.853,-2.625 5.853,-5.852 l 0,-17.948 c 0,-3.227 -2.626,-5.852 -5.853,-5.852 z M 34,35.686 l 5.865,0 0,1.977 -5.865,0 0,-1.977 z m 36.353,25.777 c 0,1.572 -1.28,2.852 -2.853,2.852 l -35,0 c -1.573,0 -2.853,-1.279 -2.853,-2.852 l 0,-17.949 c 0,-1.572 1.28,-2.852 2.853,-2.852 l 8.865,0 26.135,0 c 1.573,0 2.853,1.279 2.853,2.852 l 0,17.949 z"
       id="path6"
       inkscape:connector-curvature="0"
       style="fill:#000000" /><path
       d="m 50,42.09 c -5.734,0 -10.399,4.665 -10.399,10.398 0,5.734 4.665,10.4 10.399,10.4 5.734,0 10.399,-4.666 10.399,-10.4 C 60.399,46.755 55.734,42.09 50,42.09 Z m -1.088,3.089 -6.197,6.059 c 0.536,-3.132 3.043,-5.591 6.197,-6.059 z M 50,59.889 c -3.168,0 -5.871,-2.006 -6.923,-4.812 l 9.67,-9.453 c 2.723,1.094 4.652,3.756 4.652,6.864 0,4.081 -3.319,7.401 -7.399,7.401 z"
       id="path8"
       inkscape:connector-curvature="0"
       style="fill:#000000" /><path
       d="m 66.839,42.619 -5.612,0 c -0.829,0 -1.5,0.672 -1.5,1.5 0,0.828 0.671,1.5 1.5,1.5 l 5.612,0 c 0.829,0 1.5,-0.672 1.5,-1.5 0,-0.828 -0.672,-1.5 -1.5,-1.5 z"
       id="path10"
       inkscape:connector-curvature="0"
       style="fill:#000000" /></g></svg>