<?xml version="1.0" encoding="UTF-8" standalone="no"?>
<svg
   xmlns:dc="http://purl.org/dc/elements/1.1/"
   xmlns:cc="http://creativecommons.org/ns#"
   xmlns:rdf="http://www.w3.org/1999/02/22-rdf-syntax-ns#"
   xmlns:svg="http://www.w3.org/2000/svg"
   xmlns="http://www.w3.org/2000/svg"
   xmlns:sodipodi="http://sodipodi.sourceforge.net/DTD/sodipodi-0.dtd"
   xmlns:inkscape="http://www.inkscape.org/namespaces/inkscape"
   version="1.1"
   x="0px"
   y="0px"
   viewBox="0 0 18 18.000001"
   enable-background="new 0 0 60 100"
   xml:space="preserve"
   id="svg2"
   inkscape:version="0.91 r13725"
   sodipodi:docname="noun_4031_cc.svg"
   width="18"
   height="18"><metadata
     id="metadata14"><rdf:RDF><cc:Work
         rdf:about=""><dc:format>image/svg+xml</dc:format><dc:type
           rdf:resource="http://purl.org/dc/dcmitype/StillImage" /><dc:title></dc:title></cc:Work></rdf:RDF></metadata><defs
     id="defs12" /><sodipodi:namedview
     pagecolor="#ffffff"
     bordercolor="#666666"
     borderopacity="1"
     objecttolerance="10"
     gridtolerance="10"
     guidetolerance="10"
     inkscape:pageopacity="0"
     inkscape:pageshadow="2"
     inkscape:window-width="718"
     inkscape:window-height="480"
     id="namedview10"
     showgrid="false"
     fit-margin-top="0"
     fit-margin-left="0"
     fit-margin-right="0"
     fit-margin-bottom="0"
     inkscape:zoom="1.6948454"
     inkscape:cx="9.8765505"
     inkscape:cy="-4.9197464"
     inkscape:window-x="0"
     inkscape:window-y="0"
     inkscape:window-maximized="0"
     inkscape:current-layer="svg2" /><path
     d="M 16.626648,0 13.814306,2.812342 C 11.932415,1.565442 9.3732,1.770137 7.715007,3.428331 L 5.887237,5.256101 6.917251,6.286115 6.286115,6.917251 5.256101,5.887237 3.428331,7.715007 C 1.770138,9.3732 1.565441,11.932416 2.812342,13.814306 L 0,16.626648 1.373352,18 4.180645,15.187658 c 1.88189,1.2469 4.441106,1.042204 6.099299,-0.615989 l 1.832819,-1.82777 -1.030014,-1.030014 0.631136,-0.631136 1.030014,1.030014 1.82777,-1.832819 C 16.229862,8.621751 16.43456,6.062535 15.187658,4.180645 L 18,1.373352 16.626648,0 Z M 7.831136,7.2 10.8,10.168864 10.168864,10.8 7.2,7.831136 7.831136,7.2 Z"
     id="path4"
     inkscape:connector-curvature="0" /></svg>