<?xml version="1.0" encoding="UTF-8" standalone="no"?>
<svg
   xmlns:dc="http://purl.org/dc/elements/1.1/"
   xmlns:cc="http://creativecommons.org/ns#"
   xmlns:rdf="http://www.w3.org/1999/02/22-rdf-syntax-ns#"
   xmlns:svg="http://www.w3.org/2000/svg"
   xmlns="http://www.w3.org/2000/svg"
   xmlns:sodipodi="http://sodipodi.sourceforge.net/DTD/sodipodi-0.dtd"
   xmlns:inkscape="http://www.inkscape.org/namespaces/inkscape"
   version="1.1"
   x="0px"
   y="0px"
   viewBox="0 0 18 17.999999"
   id="svg2"
   inkscape:version="0.91 r13725"
   sodipodi:docname="noun_43816_cc.svg"
   width="18"
   height="18">
  <metadata
     id="metadata16">
    <rdf:RDF>
      <cc:Work
         rdf:about="">
        <dc:format>image/svg+xml</dc:format>
        <dc:type
           rdf:resource="http://purl.org/dc/dcmitype/StillImage" />
        <dc:title></dc:title>
      </cc:Work>
    </rdf:RDF>
  </metadata>
  <defs
     id="defs14" />
  <sodipodi:namedview
     pagecolor="#ffffff"
     bordercolor="#666666"
     borderopacity="1"
     objecttolerance="10"
     gridtolerance="10"
     guidetolerance="10"
     inkscape:pageopacity="0"
     inkscape:pageshadow="2"
     inkscape:window-width="718"
     inkscape:window-height="480"
     id="namedview12"
     showgrid="false"
     fit-margin-top="0"
     fit-margin-left="0"
     fit-margin-right="0"
     fit-margin-bottom="0"
     inkscape:zoom="7.552"
     inkscape:cx="15.765586"
     inkscape:cy="9.7461325"
     inkscape:window-x="0"
     inkscape:window-y="0"
     inkscape:window-maximized="0"
     inkscape:current-layer="svg2" />
  <g
     transform="matrix(0.16616055,0,0,0.16616055,1.0230109,-157.54151)"
     id="g4">
    <path
       style="color:#000000;text-indent:0;text-transform:none;direction:ltr;block-progression:tb;baseline-shift:baseline;display:inline;overflow:visible;visibility:visible;fill:#000000;fill-opacity:1;fill-rule:nonzero;stroke:none;marker:none;enable-background:accumulate"
       d="m 15.178669,970.58078 c -5.5796904,0 -10.1784004,4.5637 -10.1784004,10.1541 l 0,2.3563 c 0,19.26422 15.5951104,34.85922 34.8591904,34.85922 l 5.68435,0 c 19.26415,0 34.85919,-15.595 34.85919,-34.85922 l 0,-2.3563 c 0,-5.5797 -4.57442,-10.1541 -10.1541,-10.1541 l -55.07023,0 z m 69.6455,2.3077 a 2.7209891,2.7209891 0 1 0 0,5.4415 c 2.65924,0 4.71267,2.0671 4.71267,4.7369 l 0,10.6643 a 2.7209891,2.7209891 0 0 0 0,0.1943 c 0.33784,4.6634 -0.76388,6.62622 -2.59926,7.94352 -1.83538,1.3175 -5.07735,1.9434 -9.08525,1.9434 a 2.7209891,2.7209891 0 1 0 0,5.4414 c 4.49814,0 8.8462,-0.508 12.26752,-2.9636 3.38085,-2.4267 5.1986,-6.82962 4.83413,-12.55902 l 0.0243,0 0,-10.6643 c 0,-5.5797 -4.56367,-10.1784 -10.1541,-10.1784 z m -69.6455,3.1337 55.07023,0 c 2.66984,0 4.71267,2.0428 4.71267,4.7127 l 0,2.3563 c 0,16.3434 -13.0744,29.41782 -29.41776,29.41782 l -5.68435,0 c -16.34327,0 -29.41775,-13.07442 -29.41775,-29.41782 l 0,-2.3563 c 0,-2.6592 2.06712,-4.7127 4.73696,-4.7127 z m 0,45.20772 c -5.5796904,0 -10.1784004,4.5637 -10.1784004,10.1541 a 2.7209891,2.7209891 0 1 0 5.4414404,0 c 0,-2.6592 2.06712,-4.7127 4.73696,-4.7127 l 55.07023,0 c 2.66973,0 4.71267,2.0429 4.71267,4.7127 a 2.7209891,2.7209891 0 1 0 5.44143,0 c 0,-5.5798 -4.57446,-10.1541 -10.1541,-10.1541 l -55.07023,0 z"
       visibility="visible"
       display="inline"
       overflow="visible"
       id="path6"
       inkscape:connector-curvature="0" />
  </g>
</svg>
