<?xml version="1.0" encoding="UTF-8" standalone="no"?>
<svg
   xmlns:dc="http://purl.org/dc/elements/1.1/"
   xmlns:cc="http://creativecommons.org/ns#"
   xmlns:rdf="http://www.w3.org/1999/02/22-rdf-syntax-ns#"
   xmlns:svg="http://www.w3.org/2000/svg"
   xmlns="http://www.w3.org/2000/svg"
   xmlns:sodipodi="http://sodipodi.sourceforge.net/DTD/sodipodi-0.dtd"
   xmlns:inkscape="http://www.inkscape.org/namespaces/inkscape"
   version="1.1"
   x="0px"
   y="0px"
   viewBox="0 0 18 18"
   xml:space="preserve"
   id="svg2"
   inkscape:version="0.91 r13725"
   sodipodi:docname="noun_552568_cc.svg"
   width="18"
   height="18"><metadata
     id="metadata18"><rdf:RDF><cc:Work
         rdf:about=""><dc:format>image/svg+xml</dc:format><dc:type
           rdf:resource="http://purl.org/dc/dcmitype/StillImage" /><dc:title></dc:title></cc:Work></rdf:RDF></metadata><defs
     id="defs16" /><sodipodi:namedview
     pagecolor="#ffffff"
     bordercolor="#666666"
     borderopacity="1"
     objecttolerance="10"
     gridtolerance="10"
     guidetolerance="10"
     inkscape:pageopacity="0"
     inkscape:pageshadow="2"
     inkscape:window-width="718"
     inkscape:window-height="480"
     id="namedview14"
     showgrid="false"
     fit-margin-top="0"
     fit-margin-left="0"
     fit-margin-right="0"
     fit-margin-bottom="0"
     inkscape:zoom="8.34386"
     inkscape:cx="9.0287719"
     inkscape:cy="6.3624502"
     inkscape:window-x="20"
     inkscape:window-y="43"
     inkscape:window-maximized="0"
     inkscape:current-layer="svg2" /><style
     type="text/css"
     id="style4">
	.st0{fill:#010101;}
</style><path
     class="st0"
     d="m 9.2767891,1.2283547 c -0.42903,-2.01897005 -1.98652,0.48311 -4.68689,1.2943 -2.78329,0.84003 -4.87795999,-1.10322 -4.23260999,1.22219 1.36639999,4.8996 4.56789999,7.7766193 6.77073999,7.0699893 0.17305,-0.0541 0.64895,-0.15864 0.81119,-0.23435 0.137,-1.1572993 0.40379,-2.4119393 0.91575,-3.7062393 0.41461,-1.04914 0.74269,-0.99506 1.2546399,-0.53358 0.0541,-1.31954 -0.3785599,-2.96716 -0.8328199,-5.11231 z m -5.84058,4.16772 c -0.68861,0.0937 -1.20417,0.64535 -1.2258,0.50113 -0.0216,-0.14781 0.46148,-0.93377 1.15369,-1.03111 0.68861,-0.0937 1.32675,0.54079 1.34838,0.68501 0.018,0.14781 -0.58766,-0.24877 -1.27627,-0.15503 z m 3.32047,3.23755 c -0.85806,0.2668 -1.98291,-0.32447 -2.08746,-0.65977 -0.10455,-0.33529 0.85085,-0.17305 1.71251,-0.43984 0.86167,-0.26679 1.64041,-0.93377 1.74497,-0.59848 0.10094,0.33529 -0.51196,1.4313 -1.37002,1.69809 z m 0.69222,-4.42009 c -0.62732,0.29924 -0.9518,0.98064 -1.01669,0.84725 -0.0649,-0.1334 0.15863,-1.03112 0.78595,-1.33036 0.62732,-0.29924 1.4277,0.11177 1.49259,0.24516 0.0613,0.1334 -0.63453,-0.0613 -1.26185,0.23795 z"
     id="path6"
     inkscape:connector-curvature="0"
     style="fill:#010101" /><path
     class="st0"
     d="m 13.552669,9.2681647 c -2.72561,-1.00588 -3.22674,-3.82162 -4.1100399,-1.57552 -1.86394,4.7337493 -1.04193,8.9591593 1.1392699,9.7234793 2.18121,0.76432 4.61478,-0.2055 7.49181,-6.35613 0.87608,-1.8711493 -1.87476,-0.8148 -4.52104,-1.7918293 z M 9.7202391,10.270434 c 0.0324,-0.14421 0.5011299,0.44705 1.1789299,0.60208 0.6814,0.15142 1.31593,-0.19468 1.28348,-0.0505 -0.0324,0.14421 -0.71745,0.72466 -1.39885,0.57324 -0.6814,-0.15503 -1.0960099,-0.98064 -1.0635599,-1.12485 z m 3.3925799,5.48726 c -0.12979,0.32447 -0.85446,-0.4038 -1.68728,-0.73909 -0.83282,-0.33529 -1.7990399,-0.25598 -1.6692499,-0.58045 0.12979,-0.32448 1.2979099,-0.8184 2.1343299,-0.48311 0.83283,0.33169 1.35199,1.47456 1.2222,1.80265 z m 2.9275,-3.03206 c -0.0757,0.12619 -0.90493,0.4723 -1.50701,0.12258 -0.60209,-0.34971 -0.7463,-1.26546 -0.67419,-1.39164 0.0757,-0.12619 0.33889,0.58045 0.94098,0.93017 0.60208,0.34971 1.31232,0.2091 1.24022,0.33889 z"
     id="path8"
     inkscape:connector-curvature="0"
     style="fill:#010101" /></svg>