<?xml version="1.0" encoding="UTF-8" standalone="no"?>
<svg
   xmlns:dc="http://purl.org/dc/elements/1.1/"
   xmlns:cc="http://creativecommons.org/ns#"
   xmlns:rdf="http://www.w3.org/1999/02/22-rdf-syntax-ns#"
   xmlns:svg="http://www.w3.org/2000/svg"
   xmlns="http://www.w3.org/2000/svg"
   xmlns:sodipodi="http://sodipodi.sourceforge.net/DTD/sodipodi-0.dtd"
   xmlns:inkscape="http://www.inkscape.org/namespaces/inkscape"
   version="1.1"
   x="0px"
   y="0px"
   viewBox="0 0 18.000001 18"
   enable-background="new 0 0 100 100"
   xml:space="preserve"
   id="svg2"
   inkscape:version="0.91 r13725"
   sodipodi:docname="noun_33929_cc.svg"
   width="18"
   height="18"><metadata
     id="metadata18"><rdf:RDF><cc:Work
         rdf:about=""><dc:format>image/svg+xml</dc:format><dc:type
           rdf:resource="http://purl.org/dc/dcmitype/StillImage" /><dc:title></dc:title></cc:Work></rdf:RDF></metadata><defs
     id="defs16" /><sodipodi:namedview
     pagecolor="#ffffff"
     bordercolor="#666666"
     borderopacity="1"
     objecttolerance="10"
     gridtolerance="10"
     guidetolerance="10"
     inkscape:pageopacity="0"
     inkscape:pageshadow="2"
     inkscape:window-width="718"
     inkscape:window-height="480"
     id="namedview14"
     showgrid="false"
     fit-margin-top="0"
     fit-margin-left="0"
     fit-margin-right="0"
     fit-margin-bottom="0"
     inkscape:zoom="1.888"
     inkscape:cx="16.762912"
     inkscape:cy="-9.107575"
     inkscape:window-x="20"
     inkscape:window-y="43"
     inkscape:window-maximized="0"
     inkscape:current-layer="svg2" /><g
     id="g4"
     transform="matrix(0.25276231,0,0,0.25276231,-2.7681475,-2.2207318)"><path
       d="m 49.999,47.08 c -11.145,0 -20.188,11.061 -20.188,24.689 0,4.551 3.011,8.23 6.73,8.23 l 26.916,0 c 3.72,0 6.73,-3.68 6.73,-8.23 C 70.188,58.141 61.146,47.08 49.999,47.08 Z"
       id="path6"
       inkscape:connector-curvature="0" /><path
       d="M 73.699,20.826 55.77,8.96 C 55.539,8.805 55.251,8.75 54.977,8.809 l -19.859,4.193 c -0.4,0.084 -0.715,0.396 -0.805,0.798 l -0.119,0.537 c -0.094,0.423 0.082,0.86 0.445,1.1 l 8.314,5.503 -0.339,1.533 c -3.004,2.252 -4.957,5.83 -4.957,9.871 0,6.816 5.529,12.346 12.342,12.346 6.814,0 12.344,-5.529 12.344,-12.346 0,-1.464 -0.269,-2.863 -0.737,-4.166 0.185,-0.236 0.312,-0.488 0.371,-0.755 l 0.414,-1.876 5.364,-1.133 c 0.667,0.943 1.103,2.088 1.212,3.547 -0.545,0.282 -0.922,0.844 -0.922,1.5 0,0.551 0.267,1.034 0.674,1.344 -0.461,2.352 -1.076,6.673 0.15,8.589 0.361,0.563 0.873,0.924 1.479,1.039 0.048,0.009 0.096,0.014 0.144,0.014 0.356,0 0.674,-0.253 0.744,-0.617 0.078,-0.411 -0.192,-0.809 -0.604,-0.887 -0.133,-0.025 -0.308,-0.09 -0.485,-0.367 -0.433,-0.676 -0.534,-2.01 -0.454,-3.516 0.374,1.168 0.949,2.219 1.836,2.803 0.352,0.232 0.821,0.133 1.051,-0.217 0.23,-0.35 0.133,-0.82 -0.217,-1.051 -1.192,-0.785 -1.695,-3.477 -1.803,-5.66 0.52,-0.289 0.875,-0.837 0.875,-1.474 0,-0.667 -0.389,-1.238 -0.949,-1.514 -0.1,-1.555 -0.504,-2.82 -1.128,-3.871 l 3.861,-0.816 c 0.401,-0.084 0.716,-0.396 0.805,-0.797 l 0.119,-0.537 c 0.094,-0.423 -0.082,-0.862 -0.444,-1.1 z M 53.145,16.721 c 0.017,-0.137 0.156,-0.249 0.415,-0.304 0.516,-0.108 1.313,0.054 1.78,0.362 0.233,0.154 0.34,0.316 0.322,0.454 l -0.076,0.376 c -0.018,0.137 -0.156,0.248 -0.414,0.303 -0.518,0.109 -1.313,-0.053 -1.78,-0.361 -0.233,-0.155 -0.34,-0.317 -0.323,-0.454 l 0.076,-0.376 z"
       id="path8"
       inkscape:connector-curvature="0" /></g></svg>