<?xml version="1.0" encoding="UTF-8" standalone="no"?>
<svg
   xmlns:dc="http://purl.org/dc/elements/1.1/"
   xmlns:cc="http://creativecommons.org/ns#"
   xmlns:rdf="http://www.w3.org/1999/02/22-rdf-syntax-ns#"
   xmlns:svg="http://www.w3.org/2000/svg"
   xmlns="http://www.w3.org/2000/svg"
   xmlns:sodipodi="http://sodipodi.sourceforge.net/DTD/sodipodi-0.dtd"
   xmlns:inkscape="http://www.inkscape.org/namespaces/inkscape"
   version="1.0"
   x="0px"
   y="0px"
   viewBox="0 0 18 18"
   enable-background="new 0 0 100 61.21"
   xml:space="preserve"
   id="svg2"
   inkscape:version="0.91 r13725"
   sodipodi:docname="noun_59.svg"
   width="18"
   height="18"><metadata
     id="metadata22"><rdf:RDF><cc:Work
         rdf:about=""><dc:format>image/svg+xml</dc:format><dc:type
           rdf:resource="http://purl.org/dc/dcmitype/StillImage" /><dc:title></dc:title></cc:Work></rdf:RDF></metadata><defs
     id="defs20" /><sodipodi:namedview
     pagecolor="#ffffff"
     bordercolor="#666666"
     borderopacity="1"
     objecttolerance="10"
     gridtolerance="10"
     guidetolerance="10"
     inkscape:pageopacity="0"
     inkscape:pageshadow="2"
     inkscape:window-width="718"
     inkscape:window-height="480"
     id="namedview18"
     showgrid="false"
     fit-margin-top="0"
     fit-margin-left="0"
     fit-margin-right="0"
     fit-margin-bottom="0"
     inkscape:zoom="4"
     inkscape:cx="9.0000092"
     inkscape:cy="5.5848616"
     inkscape:window-x="20"
     inkscape:window-y="43"
     inkscape:window-maximized="0"
     inkscape:current-layer="svg2" /><path
     d="m 7.6959022,9.169586 -0.69084,-1.761659 c -0.13428,-0.33246 -0.4176,-0.6183 -0.95004,-0.62208 l -0.9846,0 0,-0.45792 c 9e-4,-0.18072 -0.0999,-0.27396 -0.2592,-0.27612 l -0.578519,0 -0.57006,0 c -0.16326,0.002 -0.2637,0.09522 -0.26766,0.27612 l 0,0.45792 -0.99378,0 c -0.53028,0.0038 -0.81378,0.28962 -0.94122,0.62208 L 0.76032318,9.169586 c -0.27414,0.03276 -0.76176,0.34992 -0.7603199977768,0.9504 l 0,2.23704 0.6737399977768,0 0,0.7164 c 7.2e-4,0.876239 1.27098002,0.865979 1.26972002,0 l 0,-0.7164 2.28888,0 2.280239,0 0,0.7164 c 0.0013,0.865979 1.27134,0.876239 1.26954,0 l 0,-0.7164 0.68238,0 0,-2.23704 c -0.0045,-0.60048 -0.4923,-0.91764 -0.7686,-0.9504 z m -6.365519,1.82268 c -0.32472,-0.0032 -0.58716002,-0.26892 -0.58752002,-0.59634 3.6e-4,-0.32688 0.26280002,-0.59256 0.58752002,-0.5958 0.32328,0.0032 0.5859,0.26874 0.58716,0.5958 -0.0013,0.32742 -0.26388,0.5931 -0.58716,0.59634 z m 2.90196,-1.86588 -0.0085,0 -2.74698,0 0.52704,-1.356119 c 0.06606,-0.19836 0.16434,-0.33858 0.39726,-0.33696 l 1.82268,0 0.0085,0 1.830959,0 c 0.22662,-0.0016 0.3249,0.13878 0.3888,0.33696 l 0.52704,1.356119 -2.746799,0 z m 2.893319,1.86588 c -0.32112,-0.0032 -0.58392,-0.26874 -0.58734,-0.59616 0.0034,-0.32688 0.26622,-0.59256 0.58734,-0.5958 0.3267,0.0032 0.5895,0.26874 0.58752,0.5958 0.002,0.32724 -0.26082,0.59292 -0.58752,0.59616 z"
     id="path4"
     inkscape:connector-curvature="0" /><path
     d="M 7.1256622,10.395926"
     id="path6"
     inkscape:connector-curvature="0" /><path
     d="M 16.57476,10.274966"
     id="path8"
     inkscape:connector-curvature="0" /><path
     d="M 10.278182,10.274966"
     id="path10"
     inkscape:connector-curvature="0" /><g
     id="g12"
     transform="matrix(0.17999997,0,0,0.17999997,3.1822232e-6,2.7090273)"><path
       d="m 74.328,0 c 0.087,0 0.178,0.005 0.266,0.005 C 74.679,0.005 74.77,0 74.857,0 l -0.529,0 z"
       id="path14"
       inkscape:connector-curvature="0" /><path
       d="M 97.553,9.07 C 96.852,5.687 94.657,4.337 91.363,2.973 88.119,1.655 80.353,0.064 74.594,0.005 68.842,0.064 61.076,1.655 57.822,2.973 54.541,4.337 52.344,5.687 51.679,9.07 l -2.495,18.711 0,25.819 4.27,0 0,4.03 c -0.013,4.945 7.318,4.945 7.342,0 l 0,-4.03 13.532,0 14.107,0 0,4.03 c -0.015,4.945 7.316,4.945 7.294,0 l 0,-4.03 4.271,0 0,-25.819 L 97.553,9.07 Z m -33.397,-4.319 10.172,0 10.701,0 c 2.08,-0.008 2.08,3.03 0,3.022 l -10.701,0 -10.172,0 c -2.071,0.008 -2.071,-3.03 0,-3.022 z m -7.055,40.737 c -1.932,0.02 -3.506,-1.533 -3.502,-3.455 -0.004,-1.905 1.57,-3.454 3.502,-3.454 1.952,0 3.527,1.549 3.503,3.454 0.024,1.922 -1.551,3.475 -3.503,3.455 z m 17.227,-15.738 -18.617,0 c -1.84,0.014 -2.223,-1.277 -2.064,-2.591 l 1.92,-13.58 c 0.287,-1.64 0.855,-2.728 3.022,-2.734 l 15.739,0 16.266,0 c 2.179,0.006 2.749,1.094 3.023,2.734 l 1.921,13.58 c 0.17,1.314 -0.214,2.604 -2.065,2.591 l -19.145,0 z m 17.754,15.738 c -1.94,0.02 -3.515,-1.533 -3.504,-3.455 -0.011,-1.905 1.563,-3.454 3.504,-3.454 1.945,0 3.519,1.549 3.503,3.454 0.016,1.922 -1.558,3.475 -3.503,3.455 z"
       id="path16"
       inkscape:connector-curvature="0" /></g></svg>