<?xml version="1.0" encoding="UTF-8" standalone="no"?>
<svg
   xmlns:dc="http://purl.org/dc/elements/1.1/"
   xmlns:cc="http://creativecommons.org/ns#"
   xmlns:rdf="http://www.w3.org/1999/02/22-rdf-syntax-ns#"
   xmlns:svg="http://www.w3.org/2000/svg"
   xmlns="http://www.w3.org/2000/svg"
   xmlns:sodipodi="http://sodipodi.sourceforge.net/DTD/sodipodi-0.dtd"
   xmlns:inkscape="http://www.inkscape.org/namespaces/inkscape"
   version="1.1"
   x="0px"
   y="0px"
   viewBox="0 0 18 18"
   enable-background="new 0 0 100 100"
   xml:space="preserve"
   id="svg2"
   inkscape:version="0.91 r13725"
   sodipodi:docname="noun_35776_cc.svg"
   width="18"
   height="18"><metadata
     id="metadata18"><rdf:RDF><cc:Work
         rdf:about=""><dc:format>image/svg+xml</dc:format><dc:type
           rdf:resource="http://purl.org/dc/dcmitype/StillImage" /><dc:title></dc:title></cc:Work></rdf:RDF></metadata><defs
     id="defs16" /><sodipodi:namedview
     pagecolor="#ffffff"
     bordercolor="#666666"
     borderopacity="1"
     objecttolerance="10"
     gridtolerance="10"
     guidetolerance="10"
     inkscape:pageopacity="0"
     inkscape:pageshadow="2"
     inkscape:window-width="718"
     inkscape:window-height="480"
     id="namedview14"
     showgrid="false"
     fit-margin-top="0"
     fit-margin-left="0"
     fit-margin-right="0"
     fit-margin-bottom="0"
     inkscape:zoom="1.888"
     inkscape:cx="9.5660001"
     inkscape:cy="-8.0948783"
     inkscape:window-x="20"
     inkscape:window-y="43"
     inkscape:window-maximized="0"
     inkscape:current-layer="svg2" /><g
     id="g4"
     transform="matrix(0.22417615,0,0,0.22417615,-2.0819239,-1.0533584)"><path
       d="m 60.114,63.323 c 0,0 24.172,-1.649 27.093,-3.774 1.064,-2.833 -1.916,-16.975 -2.11,-18.231 -0.03,-0.759 -0.03,-0.759 -0.078,-2.748 -0.01,-0.425 0.017,-1.044 0.072,-1.778 0.817,-0.057 1.533,-0.646 1.702,-1.49 0.19,-0.955 -0.386,-1.877 -1.299,-2.15 0.015,-0.108 0.031,-0.217 0.046,-0.326 0.821,-0.115 1.496,-0.762 1.598,-1.624 0.094,-0.793 -0.324,-1.523 -0.991,-1.873 0.188,-0.909 0.393,-1.778 0.615,-2.549 0.536,-1.857 2.817,-4.321 1.506,-5.267 -1.666,-1.201 -2.744,0.06 -3.913,2.511 -3.27,6.858 -19.171,1.544 -27.504,-1.136 -0.264,1.003 -0.544,1.981 -0.833,2.948 L 54.703,25.68 c -0.638,-0.076 -1.217,0.38 -1.293,1.018 -0.076,0.638 0.38,1.216 1.018,1.292 l 0.881,0.105 c -0.346,1.051 -0.705,2.079 -1.08,3.075 l -0.974,-0.462 c -0.581,-0.276 -1.275,-0.029 -1.55,0.552 -0.276,0.581 -0.028,1.273 0.552,1.549 l 1.115,0.529 c -0.387,0.934 -0.792,1.829 -1.204,2.701 l -0.861,-0.408 c -0.581,-0.276 -1.275,-0.028 -1.55,0.552 -0.276,0.581 -0.028,1.273 0.552,1.549 l 0.819,0.389 c -0.411,0.78 -0.829,1.541 -1.259,2.257 l -0.794,-0.553 c -0.528,-0.367 -1.253,-0.237 -1.62,0.291 -0.367,0.527 -0.237,1.251 0.29,1.619 l 0.859,0.599 c -0.706,1.029 -1.434,1.969 -2.18,2.817 l -0.56,-0.68 c -0.408,-0.496 -1.142,-0.566 -1.637,-0.158 -0.496,0.408 -0.567,1.141 -0.159,1.637 l 0.728,0.884 c -0.667,0.613 -1.346,1.157 -2.035,1.614 -0.009,-0.036 -0.455,0.046 -1.21,0.187 L 41.43,48.093 c -0.139,-0.627 -0.761,-1.023 -1.387,-0.883 -0.627,0.139 -1.022,0.761 -0.883,1.388 l 0.099,0.443 c -3.644,0.604 -9.445,1.329 -14.041,0.438 -9.857,-2.284 -14.026,5.938 -14.161,10.636 2.231,1.519 5.593,4.835 21.269,6.621 12.885,1.467 24.089,-2.306 27.788,-3.413 z"
       id="path6"
       inkscape:connector-curvature="0" /><path
       d="M 88.537,62.554 C 76.329,64.719 83.312,64.148 61.336,65.971 26.13,75.423 9.971,62.554 9.971,62.554 l -0.684,5.866 5.383,2.804 1.306,-1.263 2.191,0.532 0,1.793 2.854,0.764 0.666,-1.561 2.157,0.299 0,1.858 3.776,0.739 0.971,-1.368 2.888,0.532 0.587,1.598 2.691,0.084 1.136,-1.75 2.423,0.2 0.598,1.861 3.078,0 0.308,-1.562 3.137,-0.353 0.615,1.746 4.159,-0.199 0.327,-2.325 10.895,-2.356 2.374,4.348 3.588,0 0.622,-1.958 2.167,-0.364 0.734,2.057 3.314,-0.532 0.532,-2.092 3.153,-0.532 1.029,2.359 2.954,-0.532 0.532,-2.176 2.057,-0.547 1.662,2.026 3.43,-1.361 -1.044,-8.635 z"
       id="path8"
       inkscape:connector-curvature="0" /></g></svg>