<?xml version="1.0" encoding="UTF-8" standalone="no"?>
<svg
   xmlns:dc="http://purl.org/dc/elements/1.1/"
   xmlns:cc="http://creativecommons.org/ns#"
   xmlns:rdf="http://www.w3.org/1999/02/22-rdf-syntax-ns#"
   xmlns:svg="http://www.w3.org/2000/svg"
   xmlns="http://www.w3.org/2000/svg"
   xmlns:sodipodi="http://sodipodi.sourceforge.net/DTD/sodipodi-0.dtd"
   xmlns:inkscape="http://www.inkscape.org/namespaces/inkscape"
   version="1.1"
   x="0px"
   y="0px"
   viewBox="0 0 18 14.364581"
   enable-background="new 0 0 128 128"
   xml:space="preserve"
   id="svg2"
   inkscape:version="0.91 r13725"
   sodipodi:docname="noun_124994_cc.svg"
   width="18"
   height="14.364581"><metadata
     id="metadata20"><rdf:RDF><cc:Work
         rdf:about=""><dc:format>image/svg+xml</dc:format><dc:type
           rdf:resource="http://purl.org/dc/dcmitype/StillImage" /><dc:title></dc:title></cc:Work></rdf:RDF></metadata><defs
     id="defs18" /><sodipodi:namedview
     pagecolor="#ffffff"
     bordercolor="#666666"
     borderopacity="1"
     objecttolerance="10"
     gridtolerance="10"
     guidetolerance="10"
     inkscape:pageopacity="0"
     inkscape:pageshadow="2"
     inkscape:window-width="1058"
     inkscape:window-height="706"
     id="namedview16"
     showgrid="false"
     fit-margin-top="0"
     fit-margin-left="0"
     fit-margin-right="0"
     fit-margin-bottom="0"
     inkscape:zoom="1"
     inkscape:cx="-106.38081"
     inkscape:cy="20.367698"
     inkscape:window-x="0"
     inkscape:window-y="0"
     inkscape:window-maximized="0"
     inkscape:current-layer="svg2" /><polygon
     points="78.566,102.993 93.587,92.752 96.723,92.752 113.245,87.814 16.506,87.814 33.028,92.752 36.167,92.752 51.188,102.993 "
     id="polygon4"
     transform="matrix(0.18606767,0,0,0.18606767,-3.071233,-4.799086)" /><path
     d="m 8.755042,7.723454 c 0,0 -0.0084,-0.03238 -0.02363,-0.09341 -0.01563,-0.04987 -0.01712,-0.179183 0.0039,-0.293243 0.01935,-0.123549 0.05247,-0.267751 0.09173,-0.413256 0.01972,-0.0735 0.02958,-0.145505 0.03796,-0.216397 -5.58e-4,-0.03349 -0.0039,-0.06587 -0.0028,-0.09713 l 1.86e-4,-0.0061 c 9.3e-4,-0.0065 -0.0095,0.05247 -0.0048,0.02642 l -7.44e-4,-0.002 -1.86e-4,-0.0041 -0.0015,-0.01749 -0.0032,-0.03517 -0.0069,-0.07126 C 8.837958,6.404308 8.830358,6.304203 8.822358,6.200749 8.817358,6.094132 8.778448,6.02324 8.762628,5.932812 l -0.03051,-0.129317 -0.0069,-0.03219 -0.0013,-0.0082 -7.45e-4,-0.0041 -7.44e-4,-0.0017 c -0.0048,-0.032 0.0067,0.04056 0.0054,0.032 l -0.0073,-0.01991 -0.02716,-0.08206 C 8.674019,5.634865 8.656899,5.571415 8.635869,5.526387 8.612429,5.491967 8.593259,5.457547 8.575019,5.423119 8.491849,5.273707 8.366065,5.072568 8.226887,4.87608 8.095151,4.676988 7.935691,4.453149 7.795582,4.20847 l -0.105686,-0.195744 -0.02624,-0.04912 -0.0063,-0.01209 -0.02456,-0.05936 -0.0076,-0.02251 -0.032,-0.09024 C 7.552076,3.656788 7.505746,3.546078 7.469834,3.415644 7.440804,3.257673 7.415134,3.10119 7.393544,2.947312 7.370844,2.786735 7.388144,2.67342 7.384644,2.537963 7.385388,2.271328 7.422784,2.051582 7.450514,1.825882 7.475264,1.657677 7.493124,1.610974 7.528844,1.472726 7.567364,1.345083 7.610344,1.220604 7.660022,1.12757 7.754542,0.926431 7.866557,0.771809 7.96294,0.638212 8.05504,0.504429 8.143798,0.394836 8.210224,0.301988 8.346425,0.110152 8.423829,0 8.423829,0 l 0.09638,0.0134 c 0,0 0.0061,0.03368 0.01786,0.09694 0.008,0.06271 0.02903,0.159832 0.02493,0.278357 0.0054,0.121317 -0.0035,0.265891 -0.02009,0.424235 -0.01098,0.157971 -0.03349,0.330456 -0.03442,0.498289 -0.0095,0.0895 0.006,0.161134 0.0074,0.234817 0.0028,0.06326 0.02121,0.228864 0.03163,0.277055 0.03833,0.20821 0.05694,0.446749 0.100477,0.651981 0.01972,0.100105 0.02512,0.229794 0.05619,0.308686 0.02326,0.08634 0.0428,0.172857 0.05954,0.260681 0.04503,0.115734 0.0895,0.232771 0.134527,0.349807 l 0.03461,0.0895 0.0084,0.02233 0.0024,0.0056 9.3e-4,0.0026 c -0.0086,-0.02065 0.02158,0.05005 -0.01935,-0.04521 l 0.0048,0.0091 0.01861,0.03684 0.07443,0.146808 c 0.123549,0.221234 0.247284,0.441724 0.368973,0.659051 0.125037,0.240586 0.242446,0.480241 0.327665,0.77981 0.02177,0.07871 0.04205,0.155925 0.05824,0.232398 0.01079,0.06773 0.01079,0.118712 0.01656,0.178067 l 0.0061,0.08522 0.002,0.02121 c -0.0013,-0.0069 0.01023,0.06773 0.0052,0.03759 l 0,0.0035 -3.72e-4,0.0065 -0.0011,0.01247 -0.0028,0.05135 c -0.0058,0.06754 -0.01154,0.134155 -0.01675,0.200395 -0.01489,0.125968 -0.01861,0.266263 -0.05154,0.363018 -0.03126,0.09955 -0.06066,0.196116 -0.0895,0.288219 l -0.0227,0.06829 -0.01098,0.03368 -0.0056,0.01656 -0.0015,0.0041 -5.58e-4,0.0022 c 0.0041,-0.02475 -0.0065,0.03591 -0.0058,0.0307 l -0.0048,0.01079 C 9.567961,6.802564 9.539491,6.855411 9.512141,6.905277 9.451481,6.995707 9.3925,7.075529 9.335749,7.13935 9.227086,7.272203 9.11712,7.365237 9.049205,7.448223 c -0.07368,0.08838 -0.124107,0.130805 -0.152203,0.19779 -0.02996,0.05675 -0.04615,0.08708 -0.04615,0.08708 l -0.09601,-0.0097 z"
     id="path6"
     inkscape:connector-curvature="0" /><path
     d="m 6.385656,9.903237 c 0,0 -0.006,-0.02642 -0.01675,-0.07554 -0.01135,-0.04 -0.01247,-0.144016 0.0026,-0.236678 0.01396,-0.09917 0.03814,-0.21528 0.06605,-0.333061 0.01414,-0.05898 0.02121,-0.117037 0.02735,-0.174532 -7.44e-4,-0.02661 -0.0026,-0.05284 -0.0022,-0.07778 l 0,-0.0052 c 9.31e-4,-0.0054 -0.0067,0.0428 -0.0035,0.0214 l 0,-0.0017 -1.86e-4,-0.0035 -9.3e-4,-0.01414 -0.0022,-0.02828 -0.0048,-0.05768 C 6.44569,8.839516 6.4403,8.758388 6.43453,8.674844 6.43083,8.589444 6.40309,8.531758 6.39155,8.458633 l -0.02196,-0.104012 -0.0048,-0.02642 -9.31e-4,-0.0063 -3.72e-4,-0.0035 -3.72e-4,-0.0015 c -0.0037,-0.02605 0.0047,0.03275 0.0037,0.02586 l -0.0048,-0.016 -0.01972,-0.06587 C 6.328335,8.218281 6.316065,8.167111 6.301175,8.130458 6.284055,8.103668 6.270105,8.075758 6.257265,8.047658 6.197355,7.927458 6.107109,7.764835 6.006818,7.606677 5.912108,7.446101 5.79712,7.265615 5.696644,7.068011 L 5.620544,6.91004 5.601754,6.87078 5.597054,6.86108 5.579194,6.81289 5.573794,6.79503 5.550904,6.72209 C 5.521324,6.62329 5.488194,6.534161 5.462154,6.428661 5.441504,6.301391 5.422894,6.175609 5.407264,6.051316 5.390894,5.921813 5.403364,5.830453 5.400564,5.721418 5.401122,5.506323 5.428104,5.328815 5.448194,5.147213 5.465874,5.011383 5.478714,4.973984 5.504574,4.862343 5.532114,4.759076 5.563184,4.658971 5.598724,4.5838 5.666644,4.421735 5.747392,4.296884 5.816609,4.188964 5.882849,4.081045 5.946857,3.993035 5.994676,3.91805 6.092546,3.763242 6.148554,3.674673 6.148554,3.674673 l 0.0694,0.01079 c 0,0 0.0041,0.02717 0.01265,0.07778 0.0061,0.0508 0.02103,0.129131 0.01805,0.224397 0.0039,0.09806 -0.0024,0.214536 -0.01451,0.342179 -0.008,0.127456 -0.02419,0.266635 -0.02493,0.402092 -0.0069,0.07182 0.0041,0.129689 0.0054,0.189231 0.002,0.05117 0.01544,0.184579 0.0227,0.223467 0.02772,0.167833 0.04131,0.360041 0.0722,0.526013 0.01414,0.08057 0.01805,0.185138 0.04056,0.248773 0.01656,0.06959 0.03089,0.139364 0.04261,0.210442 0.03219,0.09322 0.06457,0.18737 0.09694,0.282265 l 0.02493,0.07182 0.0063,0.01805 0.0013,0.0047 9.3e-4,0.0022 c -0.0063,-0.01675 0.01526,0.04019 -0.01396,-0.03666 l 0.0035,0.0071 0.01321,0.02977 0.05377,0.118525 c 0.08913,0.178067 0.178067,0.355948 0.265518,0.53141 0.09006,0.193882 0.174346,0.387206 0.235934,0.628908 0.01563,0.06308 0.03033,0.125596 0.04168,0.187556 0.0076,0.0547 0.0076,0.09527 0.01191,0.143459 l 0.0043,0.06885 0.0015,0.01656 c -9.31e-4,-0.0052 0.0074,0.0547 0.0037,0.0307 l 0,0.0026 -1.86e-4,0.0052 -3.72e-4,0.01042 -0.0022,0.04149 c -0.0041,0.05414 -0.0082,0.107919 -0.01191,0.161134 -0.01079,0.101593 -0.0134,0.214722 -0.03721,0.292871 -0.02251,0.0802 -0.04373,0.157785 -0.06438,0.232398 l -0.01637,0.05526 -0.008,0.02717 -0.0039,0.01321 -9.3e-4,0.0033 -0.0011,0.0015 c 0.003,-0.01935 -0.0047,0.0294 -0.0041,0.02549 l -0.0035,0.0078 C 6.971378,9.160293 6.950728,9.202903 6.931008,9.24328 6.887278,9.31603 6.845048,9.380411 6.804109,9.432324 6.725779,9.539127 6.646882,9.613926 6.59776,9.681283 6.54473,9.752543 6.50845,9.786225 6.488353,9.840371 c -0.02177,0.04577 -0.03312,0.07033 -0.03312,0.07033 l -0.0694,-0.0074 z"
     id="path8"
     inkscape:connector-curvature="0" /><path
     d="m 11.896422,9.292376 c 0,0 -0.0045,-0.0214 -0.0134,-0.06047 -0.0091,-0.03275 -0.01005,-0.116664 0.0022,-0.190905 0.01135,-0.07964 0.03033,-0.173229 0.05303,-0.267007 0.01154,-0.04801 0.0173,-0.0949 0.02214,-0.140667 -5.59e-4,-0.0214 -0.0022,-0.04261 -0.002,-0.06308 l 3.72e-4,-0.0039 c 3.72e-4,-0.0039 -0.0054,0.03424 -0.0028,0.01712 l -1.86e-4,-0.0011 -3.72e-4,-0.003 -9.31e-4,-0.01116 -0.002,-0.02307 -0.0037,-0.04577 c -0.0043,-0.06252 -0.0087,-0.127084 -0.01321,-0.194441 -0.0032,-0.06885 -0.02586,-0.115176 -0.03498,-0.173787 l -0.0173,-0.08392 -0.0039,-0.02103 -0.0011,-0.0048 -3.72e-4,-0.003 -1.87e-4,-9.3e-4 c -0.0028,-0.02047 0.0039,0.02642 0.003,0.02047 l -0.0039,-0.01265 -0.016,-0.05322 c -0.01135,-0.03424 -0.02084,-0.07517 -0.03293,-0.104012 -0.01358,-0.02251 -0.02493,-0.04503 -0.03535,-0.06698 C 11.744726,7.704127 11.671974,7.573506 11.591406,7.446794 11.515306,7.317477 11.423015,7.17253 11.34189,7.013629 l -0.06103,-0.126712 -0.01507,-0.03163 -0.0037,-0.008 -0.01414,-0.03814 -0.0047,-0.01488 -0.01824,-0.05824 C 11.20101,6.656767 11.17459,6.58494 11.15356,6.500279 11.137,6.398128 11.12193,6.296721 11.10946,6.196803 c -0.01302,-0.104012 -0.003,-0.177509 -0.005,-0.265333 5.58e-4,-0.172485 0.02196,-0.314826 0.03814,-0.461076 0.01395,-0.109407 0.02456,-0.13955 0.04521,-0.228677 0.02196,-0.08299 0.04726,-0.163739 0.07591,-0.223839 0.05452,-0.13062 0.11927,-0.230724 0.174904,-0.317059 0.05303,-0.08689 0.104756,-0.157972 0.143272,-0.217886 0.07852,-0.124293 0.123363,-0.195557 0.123363,-0.195557 l 0.05582,0.0084 c 0,0 0.0035,0.02196 0.01023,0.06289 0.0047,0.04075 0.01693,0.103454 0.01433,0.180486 0.0033,0.07852 -0.0017,0.172112 -0.01172,0.274822 -0.0061,0.102523 -0.01917,0.213978 -0.01972,0.323013 -0.0056,0.05787 0.0035,0.104198 0.0043,0.152017 0.0015,0.04131 0.01228,0.14811 0.01824,0.17937 0.02233,0.135085 0.03312,0.289893 0.05824,0.422559 0.01098,0.06494 0.01433,0.148854 0.03256,0.200209 0.01302,0.05563 0.02437,0.111827 0.03442,0.168577 0.02568,0.07554 0.05173,0.150901 0.07759,0.227003 l 0.01991,0.05787 0.0052,0.01414 0.0011,0.0039 5.58e-4,0.0017 c -0.0047,-0.01321 0.01265,0.03238 -0.01079,-0.02958 l 0.0028,0.0061 0.01098,0.02382 0.04298,0.09527 c 0.07145,0.143086 0.1429,0.286172 0.213234,0.427211 0.07238,0.155367 0.140108,0.311106 0.189789,0.504988 0.01228,0.05061 0.02419,0.101035 0.03331,0.150901 0.0061,0.04335 0.0061,0.07666 0.0097,0.115176 l 0.0037,0.05526 0.0011,0.01358 c -7.44e-4,-0.0043 0.0058,0.04391 0.0032,0.02493 l 0,0.002 -1.86e-4,0.0039 -5.58e-4,0.0084 -0.002,0.03331 c -0.0032,0.04373 -0.0061,0.08745 -0.0095,0.129689 -0.0086,0.0815 -0.01079,0.172485 -0.02996,0.235376 -0.01768,0.06457 -0.03498,0.126526 -0.05154,0.186626 l -0.01284,0.04428 -0.0063,0.02196 -0.0037,0.01079 -5.59e-4,0.003 -3.72e-4,0.0011 c 0.0024,-0.01619 -0.0037,0.02344 -0.0035,0.01991 l -0.0028,0.0069 c -0.01489,0.03647 -0.03145,0.07071 -0.04726,0.103082 -0.03498,0.05842 -0.06922,0.110338 -0.101965,0.151645 -0.06326,0.08596 -0.126526,0.146063 -0.165973,0.19965 -0.04261,0.05768 -0.07182,0.08503 -0.08801,0.128387 -0.01768,0.03647 -0.02698,0.05619 -0.02698,0.05619 l -0.05563,-0.0058 z"
     id="path10"
     inkscape:connector-curvature="0" /></svg>