<?xml version="1.0" encoding="UTF-8" standalone="no"?>
<svg
   xmlns:dc="http://purl.org/dc/elements/1.1/"
   xmlns:cc="http://creativecommons.org/ns#"
   xmlns:rdf="http://www.w3.org/1999/02/22-rdf-syntax-ns#"
   xmlns:svg="http://www.w3.org/2000/svg"
   xmlns="http://www.w3.org/2000/svg"
   xmlns:sodipodi="http://sodipodi.sourceforge.net/DTD/sodipodi-0.dtd"
   xmlns:inkscape="http://www.inkscape.org/namespaces/inkscape"
   version="1.1"
   x="0px"
   y="0px"
   viewBox="0 0 24 24"
   xml:space="preserve"
   id="svg2"
   inkscape:version="0.91 r13725"
   sodipodi:docname="note.svg"
   width="24"
   height="24"><metadata
     id="metadata18"><rdf:RDF><cc:Work
         rdf:about=""><dc:format>image/svg+xml</dc:format><dc:type
           rdf:resource="http://purl.org/dc/dcmitype/StillImage" /><dc:title></dc:title></cc:Work></rdf:RDF></metadata><defs
     id="defs16" /><sodipodi:namedview
     pagecolor="#ffffff"
     bordercolor="#666666"
     borderopacity="1"
     objecttolerance="10"
     gridtolerance="10"
     guidetolerance="10"
     inkscape:pageopacity="0"
     inkscape:pageshadow="2"
     inkscape:window-width="1401"
     inkscape:window-height="682"
     id="namedview14"
     showgrid="false"
     fit-margin-top="0"
     fit-margin-left="0"
     fit-margin-right="0"
     fit-margin-bottom="0"
     inkscape:zoom="11.125147"
     inkscape:cx="21.363805"
     inkscape:cy="3.7153718"
     inkscape:window-x="0"
     inkscape:window-y="0"
     inkscape:window-maximized="0"
     inkscape:current-layer="svg2"
     borderlayer="false" /><g
     id="g4"
     transform="matrix(0.85767978,0,0,0.85767978,2.3165443,3.4262092)"
     style="fill:#777777;fill-opacity:1"><g
       id="g6"
       style="fill:#777777;fill-opacity:1"><path
         d="m 11.001,18.5 c 0,-3.584 2.916,-6.5 6.5,-6.5 0.624,0 1.249,0.092 1.857,0.273 0.152,0.047 0.314,0.016 0.441,-0.078 C 19.925,12.101 20,11.952 20,11.794 L 20,1.5 C 20,0.673 19.327,0 18.5,0 L 18,0 18,3.5 C 18,4.327 17.327,5 16.5,5 15.673,5 15,4.327 15,3.5 15,2.849 15.419,2.299 16,2.092 L 16,3.5 C 16,3.776 16.224,4 16.5,4 16.776,4 17,3.776 17,3.5 L 17,0 14,0 14,3.5 C 14,4.327 13.327,5 12.5,5 11.673,5 11,4.327 11,3.5 11,2.849 11.419,2.299 12,2.092 L 12,3.5 C 12,3.776 12.224,4 12.5,4 12.776,4 13,3.776 13,3.5 L 13,0 10,0 10,3.5 C 10,4.327 9.327,5 8.5,5 7.673,5 7,4.327 7,3.5 7,2.849 7.419,2.299 8,2.092 L 8,3.5 C 8,3.776 8.224,4 8.5,4 8.776,4 9,3.776 9,3.5 L 9,0 6,0 6,3.5 C 6,4.327 5.327,5 4.5,5 3.673,5 3,4.327 3,3.5 3,2.849 3.419,2.299 4,2.092 L 4,3.5 C 4,3.776 4.224,4 4.5,4 4.776,4 5,3.776 5,3.5 L 5,0 2.5,0 C 1.673,0 1,0.673 1,1.5 l 0,19 C 1,21.327 1.673,22 2.5,22 l 8.683,0 c 0.171,0 0.331,-0.088 0.423,-0.233 0.091,-0.145 0.103,-0.327 0.029,-0.482 C 11.214,20.401 11.001,19.464 11.001,18.5 Z M 17.5,13 C 14.467,13 12,15.467 12,18.5 12,21.533 14.467,24 17.5,24 20.533,24 23,21.533 23,18.5 23,15.467 20.533,13 17.5,13 Z m 2,6 -1.5,0 0,1.5 C 18,20.776 17.776,21 17.5,21 17.224,21 17,20.776 17,20.5 L 17,19 15.5,19 C 15.224,19 15,18.776 15,18.5 15,18.224 15.224,18 15.5,18 l 1.5,0 0,-1.5 c 0,-0.276 0.224,-0.5 0.5,-0.5 0.276,0 0.5,0.224 0.5,0.5 l 0,1.5 1.5,0 c 0.276,0 0.5,0.224 0.5,0.5 0,0.276 -0.224,0.5 -0.5,0.5 z"
         id="path8"
         inkscape:connector-curvature="0"
         style="fill:#777777;fill-opacity:1" /></g></g></svg>