<?xml version="1.0" encoding="UTF-8"?>
<svg width="24px" height="24px" viewBox="0 0 24 24" version="1.1" xmlns="http://www.w3.org/2000/svg" xmlns:xlink="http://www.w3.org/1999/xlink">
    <!-- Generator: Sketch 41 (35326) - http://www.bohemiancoding.com/sketch -->
    <title>Artboard 3</title>
    <desc>Created with Sketch.</desc>
    <defs></defs>
    <g id="Page-1" stroke="none" stroke-width="1" fill="none" fill-rule="evenodd">
        <g id="Artboard-3" fill="#000000">
            <path d="M16.4844075,14.8777547 C17.4024948,13.6727651 17.9189189,12.1234927 17.9189189,10.4594595 C17.9189189,6.32806653 14.5908524,3 10.4594595,3 C6.32806595,3 3,6.32806653 3,10.4594595 C3,14.5908524 6.32806653,17.9189189 10.4594595,17.9189189 C12.1234927,17.9189189 13.6153846,17.4024948 14.8777547,16.4844075 L19.0490644,20.6557184 C19.2785863,20.8852409 19.5654886,21 19.8523909,21 C20.1392931,21 20.4261954,20.8852391 20.6557173,20.6557184 C21.1147609,20.1966724 21.1147609,19.5081093 20.6557173,19.0490633 L16.4844075,14.8777547 Z M10.4594595,15.6237006 C7.59043659,15.6237006 5.2952183,13.3284823 5.2952183,10.4594595 C5.2952183,7.59043659 7.59043659,5.2952183 10.4594595,5.2952183 C13.3284823,5.2952183 15.6237006,7.59043659 15.6237006,10.4594595 C15.6237006,13.3284823 13.3284823,15.6237006 10.4594595,15.6237006 L10.4594595,15.6237006 Z" id="Page-1"></path>
        </g>
    </g>
</svg>