<?xml version="1.0" encoding="UTF-8"?>
<svg width="18px" height="18px" viewBox="0 0 18 18" version="1.1" xmlns="http://www.w3.org/2000/svg" xmlns:xlink="http://www.w3.org/1999/xlink">
    <!-- Generator: sketchtool 41 (35326) - http://www.bohemiancoding.com/sketch -->
    <title>0AB8AF59-EC82-4F43-AF63-40F3575C7320</title>
    <desc>Created with sketchtool.</desc>
    <defs></defs>
    <g id="Page-1" stroke="none" stroke-width="1" fill="none" fill-rule="evenodd" opacity="0.600000024">
        <g id="topbar-option2" transform="translate(-297.000000, -85.000000)" fill="#000000">
            <path d="M310.484407,96.8777547 C311.402495,95.6727651 311.918919,94.1234927 311.918919,92.4594595 C311.918919,88.3280665 308.590852,85 304.459459,85 C300.328066,85 297,88.3280665 297,92.4594595 C297,96.5908524 300.328067,99.9189189 304.459459,99.9189189 C306.123493,99.9189189 307.615385,99.4024948 308.877755,98.4844075 L313.049064,102.655718 C313.278586,102.885241 313.565489,103 313.852391,103 C314.139293,103 314.426195,102.885239 314.655717,102.655718 C315.114761,102.196672 315.114761,101.508109 314.655717,101.049063 L310.484407,96.8777547 Z M304.459459,97.6237006 C301.590437,97.6237006 299.295218,95.3284823 299.295218,92.4594595 C299.295218,89.5904366 301.590437,87.2952183 304.459459,87.2952183 C307.328482,87.2952183 309.623701,89.5904366 309.623701,92.4594595 C309.623701,95.3284823 307.328482,97.6237006 304.459459,97.6237006 L304.459459,97.6237006 Z" id="Page-1"></path>
        </g>
    </g>
</svg>